<svg id="Layer_1" data-name="Layer 1" xmlns="http://www.w3.org/2000/svg" viewBox="0 0 1080 1080"><defs><style>.cls-1{fill:#b0bef4;}.cls-2{fill:#4c6ef5;}</style></defs><rect class="cls-1" x="444.45" y="229.97" width="148.44" height="620.34" rx="17.14"/><rect class="cls-2" x="444.45" y="371.52" width="148.64" height="43.08"/><rect class="cls-2" x="444.45" y="722.31" width="148.64" height="43.08"/><rect class="cls-1" x="269.26" y="225.04" width="148.44" height="620.34" rx="17.14"/><rect class="cls-2" x="269.26" y="366.59" width="148.64" height="43.08"/><rect class="cls-2" x="269.26" y="717.38" width="148.64" height="43.08"/><polygon class="cls-1" points="860.51 793.36 775.58 812.17 643.87 284.04 728.8 265.23 860.51 793.36"/><path class="cls-2" d="M767.61,849.76l-20.31,4.5c-15.21,3.36-30.48-5.69-34.1-20.22L580.13,300.47c-3.63-14.54,5.77-29.05,21-32.42l20.32-4.5c15.21-3.36,30.47,5.69,34.1,20.22L788.59,817.34C792.21,831.88,782.82,846.39,767.61,849.76Z"/><path class="cls-2" d="M898.34,816,878,820.51c-15.21,3.37-30.47-5.68-34.1-20.21L710.85,266.72c-3.62-14.53,5.77-29,21-32.41l20.31-4.5c15.21-3.37,30.48,5.68,34.11,20.21L919.31,783.6C922.94,798.13,913.55,812.64,898.34,816Z"/></svg>