<svg id="Layer_1" data-name="Layer 1" xmlns="http://www.w3.org/2000/svg" viewBox="0 0 1080 1080"><defs><style>.cls-1{fill:white;}</style></defs><path class="cls-1" d="M489.85,69.71c159.72-1.29,289.58,120.86,289.58,267.43,0,88.72-36,151.72-79.72,218.57,0,0-30.85,48.86-43.71,72,0,0-21.36,52.72-21.36,86.15,0,34.42-71.21,25.71-64.78-12.86,0,0,9.71-71.77,28.28-101.57,61.72-99,123.43-160.72,122.15-262.29C718.82,221.43,615.56,125,489.85,126.29S260,222.71,260,337.14c0,97.73,63,159.43,118.29,263.57,17.57,33.11,19.62,64.46,27,101.58,7.48,37.62-55.29,46.28-60.43,10.28s-5.4-59.74-20.57-84.86C277.64,543.25,195.2,449,197,337.14,197.05,191.85,331.42,71,489.85,69.71Z"/><rect class="cls-1" x="344.2" y="776.86" width="288" height="50.14" rx="25.07"/><rect class="cls-1" x="385.66" y="878.43" width="205.07" height="50.14" rx="25.07"/><path class="cls-1" d="M358.17,461.81C332.45,477.24,407,476,443,478.53c0,0,34.72,91.28,42.43,68.14s16.72-117,16.72-117,24.43,90,32.14,90,20.57-49,20.57-49S632,472.1,629.45,458c0,0-75.39-4.34-92.57-12.86,0,0-18.57-141.43-40.14-137.57-20.49,3.66-22.53,149.83-22.86,151.71,0,0-21.86-59.14-37.28-63S416,456.67,416,456.67Z"/></svg>
