<svg id="Capa_1" data-name="Capa 1" xmlns="http://www.w3.org/2000/svg" viewBox="0 0 512 512"><defs><style>.cls-1{fill:none;stroke:white;stroke-miterlimit:10;stroke-width:30px;}</style></defs><circle class="cls-1" cx="258.9" cy="325.23" r="141.31"/><path class="cls-1" d="M307.11,408.06,262,385a6.72,6.72,0,0,0-6.17,0l-45.13,23.1a6.77,6.77,0,0,1-9.75-7.2l8.53-48.44a6.79,6.79,0,0,0-2-6.09l-36-34.17a6.77,6.77,0,0,1,3.71-11.62l50.07-7.09a6.77,6.77,0,0,0,5.1-3.64l22.52-44.46a6.78,6.78,0,0,1,12.09,0l22.53,44.46a6.77,6.77,0,0,0,5.09,3.64l50.07,7.09a6.77,6.77,0,0,1,3.72,11.62l-36,34.17a6.76,6.76,0,0,0-2,6.09l8.53,48.44A6.77,6.77,0,0,1,307.11,408.06Z"/><path class="cls-1" d="M241.46,179.28l-76.79,33.05a5,5,0,0,1-6.55-2.18L85.85,62.6c-1.72-3.52,1.53-7.65,5.6-7.13L198.13,69A4.73,4.73,0,0,1,202,71.86L244.34,172.8A5,5,0,0,1,241.46,179.28Z"/><path class="cls-1" d="M262.81,178.35l77.65,31a5,5,0,0,0,6.48-2.35L415.2,57.5c1.63-3.56-1.73-7.6-5.79-7L303.13,67a4.73,4.73,0,0,0-3.74,2.93L259.75,172A5.06,5.06,0,0,0,262.81,178.35Z"/></svg>
