<svg id="Layer_1" data-name="Layer 1" xmlns="http://www.w3.org/2000/svg" viewBox="0 0 1080 1080"><defs><style>.cls-1{fill:none;stroke:white;stroke-miterlimit:10;stroke-width:50px;}</style></defs><path class="cls-1" d="M502.62,225.33c236.34-4.45-164.78,283.76,220,206.15,0,0-29.66,101.72,23.48,164.11,0,0,13.59,38,85.27-44.76,0,0,96.4,5.43,87.75,122.07-44.88,209.14-145.84-62.26-208,67.8V837s-167.73,29.84-170.2-23c0,0,82.8-150.55-8.65-181.74-128-19.07-162,46.8-111.24,153.24,38.32,74.61-64.25,69.19-64.25,69.19L264.1,838.36V434.19C680.16,499.2,229.07,253.31,502.62,225.33Z"/></svg>
