<?xml version="1.0" encoding="UTF-8" standalone="no"?>
<svg
   xmlns:dc="http://purl.org/dc/elements/1.1/"
   xmlns:cc="http://creativecommons.org/ns#"
   xmlns:rdf="http://www.w3.org/1999/02/22-rdf-syntax-ns#"
   xmlns:svg="http://www.w3.org/2000/svg"
   xmlns="http://www.w3.org/2000/svg"
   xmlns:sodipodi="http://sodipodi.sourceforge.net/DTD/sodipodi-0.dtd"
   xmlns:inkscape="http://www.inkscape.org/namespaces/inkscape"
   width="23.743053mm"
   height="23.791639mm"
   viewBox="0 0 23.743053 23.791639"
   version="1.1"
   id="svg2556"
   inkscape:version="1.0.2-2 (e86c870879, 2021-01-15)"
   sodipodi:docname="boson-logo-quantised.svg">
  <defs
     id="defs2550" />
  <sodipodi:namedview
     id="base"
     pagecolor="#ffffff"
     bordercolor="#666666"
     borderopacity="1.0"
     inkscape:pageopacity="0.0"
     inkscape:pageshadow="2"
     inkscape:zoom="2.8"
     inkscape:cx="35.602971"
     inkscape:cy="-14.294775"
     inkscape:document-units="mm"
     inkscape:current-layer="layer1"
     inkscape:document-rotation="0"
     showgrid="false"
     inkscape:window-width="1920"
     inkscape:window-height="1017"
     inkscape:window-x="-8"
     inkscape:window-y="-8"
     inkscape:window-maximized="1" />
  <metadata
     id="metadata2553">
    <rdf:RDF>
      <cc:Work
         rdf:about="">
        <dc:format>image/svg+xml</dc:format>
        <dc:type
           rdf:resource="http://purl.org/dc/dcmitype/StillImage" />
        <dc:title></dc:title>
      </cc:Work>
    </rdf:RDF>
  </metadata>
  <g
     inkscape:label="Layer 1"
     inkscape:groupmode="layer"
     id="layer1"
     transform="translate(-105.30109,-216.4018)">
    <path
       style="fill:#203270;stroke:none;stroke-width:0.0567595"
       d="m 115.97232,216.47144 c -1.91433,0.25442 -3.71248,0.78803 -5.33541,1.86789 -1.36266,0.9067 -2.59013,2.06215 -3.47981,3.44342 -3.77642,5.86316 -1.5778,14.05238 4.67177,17.17716 2.1257,1.06283 4.57391,1.42489 6.92467,1.14002 1.62576,-0.19707 3.13801,-0.75417 4.54077,-1.5958 5.3736,-3.22406 7.34055,-10.41584 4.35295,-15.92675 -0.92456,-1.70545 -2.34775,-3.16807 -3.95564,-4.23805 -1.14665,-0.76304 -2.44962,-1.34452 -3.80289,-1.61949 -1.25387,-0.25477 -2.6379,-0.41833 -3.91641,-0.2484 m 1.07843,6.67354 0.90816,-0.34056 c 2.1e-4,-0.40895 0.0479,-0.81898 0.35264,-1.12702 0.52298,-0.52865 1.15461,-0.0178 1.29338,0.55943 0.25423,-0.0613 0.53212,-0.11562 0.79464,-0.11046 2.33038,0.0459 0.77238,2.79853 0.064,3.74307 -0.19066,0.25417 -0.40691,0.63923 -0.69343,0.79305 -0.25463,0.13679 -0.678,0.0583 -0.95981,0.0583 0.39953,-0.56715 0.94335,-1.037 1.36865,-1.58927 0.40912,-0.53133 0.90758,-1.14025 1.04239,-1.81631 0.15677,-0.78623 -0.81507,-0.83596 -1.32931,-0.62271 -0.40952,0.16977 -0.34431,0.82301 -0.79799,1.05085 -0.44562,0.22386 -0.59961,-0.13912 -0.9745,-0.23641 -0.1965,-0.051 -0.45504,0.13538 -0.61465,0.2313 -0.11579,0.0696 -0.26762,0.1495 -0.32938,0.27659 -0.0672,0.13821 -0.0132,0.34368 -0.0115,0.49233 0.005,0.41645 -0.0994,1.23004 0.14797,1.57939 0.20258,0.28596 0.61829,0.44744 0.93069,0.57748 v 0.0568 h -1.81631 c -0.17879,-0.35004 -1.22686,-1.21693 -1.64603,-1.16937 -0.21369,0.0243 -0.40725,0.2233 -0.56759,0.34947 -0.41315,0.32507 -1.08763,0.65779 -1.36291,1.1134 -0.21836,0.36139 -0.26399,1.7629 -0.0545,2.13076 0.14905,0.26177 0.50209,0.47944 0.7364,0.66056 0.23016,0.17794 0.51475,0.47514 0.79457,0.56437 0.27217,0.0868 0.60029,-0.27353 0.79464,-0.42582 0.43137,-0.33806 0.69916,-0.48745 1.24871,-0.38539 v -0.0568 c -0.7679,-0.41174 0.14156,-1.86143 -0.68112,-2.10011 0,0.44925 0.23584,1.92994 -0.28379,2.04335 -0.20757,-0.72045 -0.83108,-0.84845 -1.19196,-1.41899 l 0.96492,-0.5676 v -0.0568 c -0.34868,-6e-5 -0.74123,-0.10393 -1.07843,-0.003 -0.71858,0.21455 -0.87081,0.93075 -0.62436,1.53575 h 0.0568 c 0.22704,-0.34907 0.75258,-0.13889 0.58196,0.27761 -0.24214,0.59098 -0.95964,-0.0346 -1.06198,-0.39113 -0.15342,-0.53479 -0.10171,-1.36428 0.4257,-1.68985 0.50584,-0.31218 1.99311,-0.23481 2.55174,-0.0697 v -0.39732 c 0.22369,0.0364 0.29475,0.12073 0.34056,0.34056 0.97706,0 1.97682,-0.0616 2.9515,0.005 0.37756,0.0258 0.82148,-0.016 0.96491,0.3922 h -0.39731 v 2.04335 c -0.38466,-0.064 -0.47355,-0.78391 -0.73788,-1.07843 -0.2225,1.07616 -1.48477,-0.40016 -0.34056,-0.52168 0.11699,-0.0124 0.23289,0.008 0.34028,0.0551 0.13049,0.0571 0.23334,0.1491 0.34084,0.23958 v -0.73788 h -1.24871 v 2.15687 c -0.55653,-0.25082 -0.35958,-0.85321 -0.45408,-1.36223 -0.28544,0.13424 -0.47553,0.55301 -0.79446,0.59132 -0.39341,0.0473 -0.68447,-0.78113 -0.0569,-0.53456 0.25053,-0.58224 -0.0276,-0.57554 -0.51084,-0.8514 l -0.0568,2.10011 h 0.79464 c 0,0.60767 -0.009,1.21165 -0.0664,1.81631 -0.0225,0.236 -0.14173,0.61578 -0.0359,0.83947 0.16023,0.3388 0.86388,0.5701 1.18071,0.73737 0.92433,0.48802 1.87182,0.95186 2.89474,1.197 0.53836,0.12901 1.08643,0.18192 1.47575,-0.27642 l 0.34056,0.11352 c -0.25048,0.73668 -1.14144,0.85838 -1.81631,0.76177 -1.49653,-0.21432 -2.954,-0.79588 -4.25697,-1.5564 -0.0553,0.70041 -0.33698,1.40366 -0.35906,2.1001 -0.0188,0.592 0.31757,0.97655 0.0231,1.58922 -0.16937,0.35247 -0.52946,0.40066 -0.7444,0.68872 -0.33676,0.45112 -0.51697,1.17197 -1.19003,1.2348 -0.69598,0.065 -1.06038,-0.65864 -1.31932,-1.18559 -0.65251,-1.32789 -1.0341,-3.1769 -1.06458,-4.65429 -0.38296,0.15943 -0.91383,0.34612 -1.23151,0.61385 -0.24782,0.20888 -0.22352,0.64616 -0.42065,0.90816 -0.40765,0.54188 -1.15622,0.27188 -1.29934,-0.33006 -0.9106,0.23561 -2.36618,0.2343 -2.23526,-1.07843 0.0255,-0.25616 0.0869,-0.49625 0.17461,-0.73788 0.51478,-1.41819 1.79127,-3.21713 3.02556,-4.08669 v -0.0568 c -0.60388,-0.42536 -1.30648,-1.21505 -1.64603,-1.87307 -0.33803,0.0969 -0.6289,-0.0199 -0.79463,-0.34141 -0.16046,-0.31138 -0.0583,-0.64178 -0.14969,-0.96406 -0.21055,-0.74196 -0.72389,-1.39277 -0.48662,-2.21362 0.17985,-0.62226 0.84452,-0.83023 1.43094,-0.84896 1.19223,-0.0381 2.67128,0.48399 3.68938,1.07599 l 0.39732,-2.15686 0.62435,0.2838 -0.23646,1.58927 0.011,0.60222 1.02008,0.62918 0.81871,0.43988 1.39492,-0.76313 c -0.36332,-1.52593 -0.30565,-3.12046 -0.74588,-4.65429 -0.10472,-0.36482 -0.42615,-1.41156 -0.95668,-1.29198 -0.48427,0.10915 -0.67868,0.90378 -0.85162,1.29198 l -0.45408,-0.22704 c 0.36706,-0.89343 1.24491,-2.20309 2.19512,-1.07821 0.14491,0.17153 0.26899,0.36702 0.3699,0.56738 0.79419,1.57707 0.78272,3.26929 1.18111,4.93808 m 1.70279,-1.49408 c -0.83135,0.15581 -0.7713,2.09346 0.11335,1.9766 0.86831,-0.11477 0.77948,-2.14387 -0.11335,-1.9766 m 0.0568,0.50266 c 0.61085,-0.0408 0.65898,0.92257 0.0567,0.97252 -0.6294,0.0522 -0.67237,-0.93137 -0.0567,-0.97252 m -10.6708,2.29689 c 0.94782,-0.1319 0.68755,0.80276 0.99894,1.30548 0.4239,0.68435 1.16002,1.25081 1.72552,1.8163 0.57764,-0.40685 1.1059,-0.8137 1.1374,-1.53251 0.0232,-0.52775 0.07,-1.06293 0.12096,-1.58927 0.0204,-0.21125 0.10654,-0.46735 -0.0439,-0.65108 -0.20252,-0.24725 -0.64445,-0.39187 -0.93069,-0.5168 -0.73356,-0.32001 -1.51972,-0.72238 -2.32714,-0.80883 -0.34748,-0.0372 -0.86722,-0.0879 -1.10318,0.22335 -0.37576,0.49557 0.15963,1.32455 0.42206,1.75336 m 4.76781,-0.17027 -0.11352,1.64603 1.24871,-0.90816 v -0.11352 l -1.13519,-0.62435 m 2.72446,0.56759 0.79464,0.62436 -0.0568,-1.02168 -0.73788,0.39732 m -7.425,-0.18464 c -0.55162,0.22943 -0.36667,1.69258 0.27224,1.41786 0.58069,-0.24969 0.42464,-1.70767 -0.27224,-1.41786 m 0.15977,0.33069 c 0.47892,-0.0113 0.5028,0.77017 0,0.74752 -0.47119,-0.0212 -0.48109,-0.73623 0,-0.74752 m 17.4252,2.12434 c 0.014,-0.42769 0.27665,-0.39766 0.34056,0 0.51282,0 1.96729,-0.26899 2.04335,0.39731 l -0.34056,-0.0568 -0.0568,2.04335 -0.22704,0.0568 c -0.0885,-0.45657 -0.18356,-0.78992 -0.51084,-1.13519 -0.17879,1.14825 -1.47756,-0.45209 -0.28379,-0.50244 0.11834,-0.005 0.23419,0.022 0.34027,0.074 0.131,0.0642 0.23362,0.16193 0.34084,0.25814 v -0.73788 h -1.24871 l -0.0568,2.04335 c -0.91746,-0.32234 0.31587,-2.07053 -0.90815,-2.10011 0.46293,0.57992 0.2297,2.15443 -0.73788,1.36224 -0.22727,0.43443 -0.7574,0.37631 -1.06634,0.0506 -0.35095,-0.36996 -0.40805,-0.92757 -0.40941,-1.41287 h -0.17028 c 0,0.44926 0.23584,1.92994 -0.2838,2.04335 l -1.19195,-1.41899 0.96491,-0.5676 v -0.0568 h -0.96491 l -0.0568,2.10011 c -0.6617,-0.29595 -0.22431,-1.40384 -0.34686,-1.985 -0.0347,-0.1646 -0.21074,-0.19627 -0.257,-0.34532 -0.0402,-0.12947 0.057,-0.14724 0.14979,-0.1671 -0.19611,-0.6117 0.56146,-0.97059 1.07843,-0.89624 0.27199,0.0391 0.58065,0.19611 0.76234,0.4039 0.13576,0.15519 0.15779,0.41197 0.37904,0.47429 0.81966,0.23084 1.86353,-0.0332 2.71827,0.0748 m -4.54077,-0.0568 h 1.53251 c -0.36292,-0.40747 -1.39963,-0.84271 -1.53251,0 m -3.91641,0.34056 0.51084,0.34056 v -0.34056 h -0.51084 m 5.95976,0.0568 0.0568,0.39732 h 0.0568 l 0.11352,-0.39732 h -0.22704 m 0.90815,0 0.17028,0.45408 h 0.0568 l 0.34056,-0.39732 -0.5676,-0.0568 m -12.71415,0.62436 v 0.0568 l 0.45408,0.34055 v -0.73787 l -0.45408,0.34056 m 12.37359,-0.34056 -0.0568,0.34056 c 0.19281,-0.0644 0.20314,-0.14627 0.17028,-0.34056 h -0.11352 m -8.62746,0.11352 -0.2838,0.22704 v 0.0568 l 0.34056,0.2838 -0.0568,-0.5676 m 7.15171,0.0568 -0.2838,0.22704 v 0.0568 l 0.34056,0.28379 -0.0568,-0.56759 m 2.27039,0.51084 h 0.0568 c 0.0297,-0.26485 0.1172,-0.40777 0.39731,-0.39732 -0.26563,-0.29731 -0.44658,0.16653 -0.45407,0.39732 m -1.07844,-0.0568 c 0.13044,0.25855 0.44023,0.39755 0.62436,0.11352 l -0.62436,-0.11352 m 1.1352,0.11352 0.34055,0.17028 v -0.0568 l -0.34055,-0.11352 m -15.55214,5.05161 c 0.0222,-0.48478 0.35187,-1.25955 0.96469,-1.12571 0.24753,0.054 0.38097,0.35503 0.62543,0.37416 0.29027,0.0228 1.15421,-0.49716 1.30303,-0.74287 0.13339,-0.22012 0.0143,-0.53831 0.004,-0.77597 -0.0346,-0.78373 0.0442,-1.39072 -0.56981,-1.93924 -0.18901,-0.16886 -0.503,-0.58077 -0.79463,-0.47502 -0.40004,0.14507 -0.72913,0.67067 -1.01055,0.97121 -0.73892,0.78901 -1.55636,1.63541 -2.00537,2.63501 -0.34323,0.7641 -0.18587,1.33862 0.74553,1.23883 0.24937,-0.0267 0.49264,-0.10977 0.73788,-0.1604 m 6.86791,-3.91641 v 0.0568 l 0.34056,0.0568 v -0.11352 h -0.34056 m 0.45408,0 v 0.11352 l 0.11352,-0.11352 h -0.11352 m -0.17028,0.39731 -1.19195,0.96492 1.13519,0.73787 c 0.0846,-0.45595 0.23788,-1.27119 0.0568,-1.70279 m 7.09495,0.5676 h 0.0568 c 0.41106,-0.44443 1.00698,0.0374 0.78164,0.56675 -0.30588,0.71846 -1.10681,0.27959 -0.95192,-0.39647 h -0.22703 l -0.0568,2.21362 c -0.52781,-0.1898 -0.2905,-0.97013 -0.45408,-1.41899 -0.20729,0.18084 -0.45288,0.61244 -0.74009,0.64808 -0.39732,0.0493 -0.69615,-0.74848 -0.0545,-0.53456 0.29294,-0.71784 -0.39885,-0.71903 -0.73787,-1.30547 0.56941,0 1.9666,-0.16392 2.3839,0.22704 m -10.61405,-0.17028 0.0568,1.13519 c 0.29163,-0.11051 0.59342,-0.28487 0.73788,-0.56759 l -0.79464,-0.5676 m 13.56555,0.39732 h -0.39732 v 2.1001 c -0.30911,-0.0503 -0.36899,-0.29725 -0.57809,-0.49869 -0.35123,-0.3384 -0.94085,-0.3703 -0.61386,-0.97706 -0.26393,-0.13849 -0.30616,-0.34822 -0.22704,-0.62435 l -0.28379,-0.39732 c 0.53416,0 1.96235,-0.26893 2.1001,0.39732 m -4.25697,-0.0568 0.11352,0.2838 0.45408,0.11352 v -0.34056 l -0.5676,-0.0568 m 1.53251,0.39732 c 0.20678,-0.069 0.25536,-0.18691 0.2838,-0.39732 l -0.2838,0.39732 m 1.30547,0 c 0.25003,-0.0366 0.42059,-0.1234 0.62436,0.0568 h 0.0568 v -0.39732 c -0.31178,8.6e-4 -0.58071,0.002 -0.68112,0.34056 m 0.62436,0.22703 -0.34056,0.39732 0.34056,0.22704 v -0.62436 m -9.36534,1.36224 c -0.4975,-0.30452 -1.24894,-1.01765 -1.81631,-1.11516 -0.2952,-0.0507 -1.37687,0.66658 -1.45764,0.95532 -0.0906,0.32364 0.0506,0.79447 0.086,1.12475 0.11165,1.0429 0.24713,2.12224 0.57707,3.12178 0.13157,0.39873 0.3623,1.40219 0.9081,1.40219 0.40027,0 0.77863,-0.70893 0.79106,-1.06163 0.0143,-0.40584 -0.32654,-0.73788 -0.26314,-1.19196 0.0894,-0.64013 0.61494,-0.68457 0.84975,-1.1508 0.29861,-0.59279 0.17283,-1.4451 0.32512,-2.08449 m 8.23014,0.39731 c -0.45453,-0.32018 -1.21891,-0.92734 -1.07843,-1.53251 0.58451,0.19872 1.05079,0.92876 1.07843,1.53251 m -14.587,-0.52525 c -0.80099,0.29895 -0.5517,2.26107 0.33807,1.89532 0.73589,-0.30248 0.563,-2.23162 -0.33807,-1.89532 m 0.0568,0.49398 c 0.59758,-0.14678 0.83069,0.77857 0.22654,0.92109 -0.60172,0.14202 -0.84524,-0.76915 -0.22654,-0.92109 m 5.84687,2.05742 c -0.82307,0.21353 -0.66442,2.21828 0.22596,1.94776 0.77631,-0.23583 0.665,-2.17894 -0.22596,-1.94776 m 0.0561,0.4996 c 0.61471,-0.0811 0.74265,0.89379 0.11324,0.96849 -0.62844,0.0745 -0.73243,-0.88681 -0.11324,-0.96849 z"
       id="path2171" />
  </g>
</svg>
